<?xml version="1.0" encoding="iso-8859-1"?>
<!-- Generator: Adobe Illustrator 19.0.0, SVG Export Plug-In . SVG Version: 6.00 Build 0)  -->
<svg version="1.1" id="Layer_1" xmlns="http://www.w3.org/2000/svg" xmlns:xlink="http://www.w3.org/1999/xlink" x="0px" y="0px"
	 viewBox="0 0 512.002 512.002" style="enable-background:new 0 0 512.002 512.002;" xml:space="preserve">
<path style="fill:#D5F4FA;" d="M454.873,148.179L268.693,27.044c-7.719-5.021-17.667-5.021-25.384,0L57.129,148.179
	c-6.6,4.295-10.58,11.633-10.58,19.509v297.767c0,12.854,10.42,23.272,23.273,23.272h372.36c12.853,0,23.273-10.418,23.273-23.272
	V167.687C465.455,159.812,461.473,152.472,454.873,148.179z"/>
<path style="fill:#C0FCFF;" d="M454.873,148.179L268.693,27.044c-3.859-2.512-8.276-3.767-12.693-3.767v465.45h186.18
	c12.853,0,23.273-10.418,23.273-23.273V167.687C465.455,159.812,461.473,152.472,454.873,148.179z"/>
<path style="fill:#DA3981;" d="M488.705,221.244c-4.352,0-8.752-1.218-12.671-3.767L256.002,74.315L35.968,217.478
	c-10.769,7.007-25.189,3.958-32.2-6.816c-7.01-10.775-3.958-25.19,6.814-32.2l232.725-151.42c7.719-5.021,17.667-5.021,25.384,0
	l232.725,151.42c10.772,7.01,13.824,21.425,6.814,32.2C503.774,217.517,496.314,221.244,488.705,221.244z"/>
<path style="fill:#A91E62;" d="M488.705,221.244c7.609,0,15.068-3.727,19.529-10.581c7.01-10.772,3.958-25.19-6.814-32.2
	L268.695,27.042c-3.859-2.512-8.276-3.767-12.693-3.767v51.038l220.032,143.162C479.953,220.026,484.353,221.244,488.705,221.244z"
	/>
<path style="fill:#B66D38;" d="M488.727,488.727H23.277c-12.853,0-23.273-10.418-23.273-23.273c0-12.851,10.42-23.273,23.273-23.273
	h465.45c12.853,0,23.273,10.421,23.273,23.273C512,478.309,501.58,488.727,488.727,488.727z"/>
<path style="fill:#AA3827;" d="M488.727,442.182H256.002v46.545h232.725c12.853,0,23.273-10.418,23.273-23.273
	C512,452.602,501.58,442.182,488.727,442.182z"/>
<path style="fill:#B66D38;" d="M318.062,287.032h-124.12c-12.853,0-23.273,10.421-23.273,23.273v155.15
	c0,12.854,10.42,23.273,23.273,23.273h124.12c12.853,0,23.272-10.418,23.272-23.273v-155.15
	C341.334,297.452,330.915,287.032,318.062,287.032z"/>
<path style="fill:#AA3827;" d="M318.062,287.032h-62.06v201.695h62.06c12.853,0,23.272-10.418,23.272-23.273v-155.15
	C341.334,297.452,330.915,287.032,318.062,287.032z"/>
<g>
</g>
<g>
</g>
<g>
</g>
<g>
</g>
<g>
</g>
<g>
</g>
<g>
</g>
<g>
</g>
<g>
</g>
<g>
</g>
<g>
</g>
<g>
</g>
<g>
</g>
<g>
</g>
<g>
</g>
</svg>
